<svg width="45" height="44" viewBox="0 0 45 44" fill="none" xmlns="http://www.w3.org/2000/svg">
<g clip-path="url(#clip0_10_16)">
<path d="M20.3899 10.5234C19.8773 9.49885 18.806 8.67011 17.4903 8.81667C16.3133 8.94745 14.5657 9.38515 13.3742 10.8205C12.1512 12.2946 11.6951 14.5935 12.6342 18.0379C13.6371 21.7123 15.1263 25.3349 16.9777 28.2575C18.8152 31.159 21.0786 33.4816 23.6753 34.3721C25.9715 35.1594 27.7276 34.8308 29.0085 33.9659C30.244 33.1319 30.9223 31.8773 31.2732 31.0085C31.6662 30.0359 31.4073 29.0231 30.8947 28.2765L29.0039 25.5268C28.5862 24.9192 27.9848 24.4613 27.288 24.2204C26.5911 23.9795 25.8354 23.9682 25.1316 24.188L22.5186 25.0049C22.436 25.0332 22.347 25.0367 22.2626 25.0148C22.1781 24.993 22.1019 24.9468 22.0434 24.882C20.8802 23.5197 19.5769 21.6197 19.2227 19.6967C19.2115 19.6453 19.2192 19.5917 19.2444 19.5455C19.6289 18.8995 20.29 18.1674 20.9485 17.5266C22.0638 16.4409 22.4864 14.7151 21.7503 13.2443L20.3899 10.5234Z" fill="#FFE8D9"/>
<path d="M43.3778 10.0228L43.378 10.0322L43.3784 10.0416C43.3932 10.4287 43.3997 10.9369 43.3997 11.1693C43.3997 11.1693 43.3997 11.1694 43.3997 11.1694L43.3975 32.8327V32.8328C43.3975 33.0615 43.3889 33.5717 43.376 33.966H43.3759L43.3757 33.9785C43.3574 34.881 43.2839 35.7816 43.1559 36.6751C43.0141 37.4037 42.7771 38.1106 42.451 38.7774C41.7321 40.1902 40.5829 41.3381 39.1692 42.0553C38.4978 42.3831 37.7861 42.6209 37.0525 42.7625C36.1657 42.8874 35.2723 42.9587 34.3769 42.976L34.3675 42.9762L34.358 42.9765C33.971 42.9913 33.4629 42.9978 33.2305 42.9978C33.2304 42.9978 33.2303 42.9978 33.2303 42.9978L11.5649 42.9934H11.5647C11.3323 42.9934 10.824 42.9869 10.4369 42.9721L10.4275 42.9718L10.4181 42.9716C9.51582 42.954 8.61546 42.8814 7.72207 42.7539C6.99355 42.6121 6.2868 42.3751 5.61999 42.0491C4.20743 41.3307 3.05958 40.1822 2.34203 38.7692C2.01424 38.0979 1.77651 37.3863 1.63499 36.6528C1.51003 35.7661 1.43872 34.8727 1.42147 33.9773L1.42129 33.9679L1.42093 33.9584C1.40612 33.5714 1.39966 33.0632 1.39966 32.8308C1.39966 32.8307 1.39966 32.8307 1.39966 32.8306L1.40406 11.1652V11.165C1.40406 10.9363 1.41259 10.4261 1.42552 10.0318L1.4256 10.0318L1.42585 10.0194C1.44422 9.11683 1.51763 8.21627 1.64566 7.3227C1.78744 6.59406 2.02443 5.88721 2.35056 5.22033C3.06895 3.80777 4.21748 2.65991 5.63046 1.94236C6.30175 1.61455 7.01335 1.37683 7.74682 1.23533C8.63354 1.11037 9.527 1.03907 10.4223 1.02181L10.4318 1.02163L10.4413 1.02127C10.8283 1.00647 11.3363 1.00001 11.5688 1C11.5688 1 11.5689 1 11.569 1C11.569 1 11.569 1 11.5691 1L33.2344 1.0066H33.2347C33.467 1.0066 33.9753 1.01306 34.3624 1.02787L34.3718 1.02823L34.3812 1.02841C35.2835 1.04597 36.1839 1.11866 37.0773 1.24607C37.8059 1.38776 38.5126 1.62473 39.1793 1.95089C40.5919 2.66914 41.7398 3.81769 42.4573 5.23074C42.7851 5.90202 43.0228 6.61363 43.1643 7.3471C43.2892 8.2339 43.3605 9.12742 43.3778 10.0228Z" stroke="#FFE8D9" stroke-width="2"/>
</g>
<defs>
<clipPath id="clip0_10_16">
<rect width="44" height="44" fill="white" transform="translate(0.399658)"/>
</clipPath>
</defs>
</svg>
