<svg width="45" height="44" viewBox="0 0 45 44" fill="none" xmlns="http://www.w3.org/2000/svg">
<path d="M23.6674 5.5H15.6822C10.1696 5.5 5.70068 9.96887 5.70068 15.4815V31.4519C5.70068 36.9644 10.1696 41.4333 15.6822 41.4333H31.6525C37.1651 41.4333 41.634 36.9644 41.634 31.4519V15.4815C41.634 9.96887 37.1651 5.5 31.6525 5.5H23.6674Z" stroke="#FFE8D9" stroke-width="2.5" stroke-linecap="round" stroke-linejoin="round"/>
<path d="M23.6676 15.4817C28.0777 15.4817 31.6527 19.0568 31.6527 23.4669C31.6527 27.877 28.0777 31.4521 23.6676 31.4521C19.2575 31.4521 15.6824 27.8769 15.6824 23.4669C15.6824 19.0568 19.2575 15.4817 23.6676 15.4817Z" stroke="#FFE8D9" stroke-width="2.5" stroke-linecap="round" stroke-linejoin="round"/>
<path d="M34.3007 15.5833C35.8194 15.5833 37.0507 14.352 37.0507 12.8333C37.0507 11.3145 35.8194 10.0833 34.3007 10.0833C32.7819 10.0833 31.5507 11.3145 31.5507 12.8333C31.5507 14.352 32.7819 15.5833 34.3007 15.5833Z" fill="#FFE8D9"/>
</svg>
