<svg width="45" height="44" viewBox="0 0 45 44" fill="none" xmlns="http://www.w3.org/2000/svg">
<g clip-path="url(#clip0_10_4)">
<path d="M33.7993 15.2834C32.9897 15.6354 32.1207 15.8774 31.2077 15.983C32.1405 15.433 32.8533 14.5618 33.1921 13.5256C32.3032 14.0436 31.3334 14.408 30.3233 14.6036C29.8984 14.1582 29.3873 13.8041 28.8211 13.5628C28.2549 13.3215 27.6454 13.198 27.0299 13.2C24.5373 13.2 22.5177 15.191 22.5177 17.644C22.5177 17.9916 22.5573 18.3304 22.6343 18.656C20.8464 18.5711 19.0959 18.1144 17.4943 17.3152C15.8928 16.5159 14.4755 15.3916 13.3327 14.014C12.9314 14.6896 12.72 15.4611 12.7211 16.247C12.7211 17.787 13.5197 19.151 14.7297 19.9452C14.0135 19.9227 13.3126 19.732 12.6837 19.3886V19.4436C12.6905 20.4764 13.0551 21.4749 13.7153 22.2692C14.3756 23.0634 15.2907 23.6042 16.3049 23.7996C15.6391 23.9756 14.9424 24.0012 14.2655 23.8744C14.5606 24.7629 15.125 25.5375 15.8804 26.0906C16.6357 26.6437 17.5446 26.9479 18.4807 26.961C16.8746 28.1986 14.9027 28.8673 12.8751 28.8618C12.5121 28.8618 12.1535 28.8398 11.7993 28.8002C13.8684 30.1098 16.2674 30.8034 18.7161 30.8C27.0189 30.8 31.5575 24.0284 31.5575 18.1544L31.5421 17.578C32.4272 16.956 33.192 16.1785 33.7993 15.2834V15.2834Z" fill="#FFE8D9"/>
<rect x="2" y="1" width="42" height="42" rx="7" stroke="#FFE8D9" stroke-width="2"/>
</g>
<defs>
<clipPath id="clip0_10_4">
<rect width="44" height="44" fill="white" transform="translate(0.799316)"/>
</clipPath>
</defs>
</svg>
