<svg width="44" height="44" viewBox="0 0 44 44" fill="none" xmlns="http://www.w3.org/2000/svg">
<g clip-path="url(#clip0_10_13)">
<path d="M42.9789 11.1564L42.9791 11.1658L42.9795 11.1752C42.9938 11.5489 43 12.0398 43 12.2641C43 12.2641 43 12.2641 43 12.2642L42.9979 33.2064V33.2065C42.9979 33.4272 42.9896 33.92 42.9772 34.3009L42.9771 34.3009L42.9768 34.3134C42.9592 35.1842 42.8884 36.0532 42.7648 36.9153C42.6284 37.6165 42.4003 38.2967 42.0865 38.9384C41.3947 40.2978 40.289 41.4022 38.9289 42.0923C38.2829 42.4077 37.5981 42.6365 36.8922 42.7728C36.0367 42.8933 35.1746 42.9621 34.3107 42.9788L34.3013 42.979L34.2918 42.9794C33.9182 42.9936 33.4275 42.9999 33.2031 42.9999C33.2031 42.9999 33.203 42.9999 33.2029 42.9999L12.2597 42.9956H12.2595C12.0353 42.9956 11.5443 42.9894 11.1706 42.9751L11.1612 42.9747L11.1518 42.9746C10.2813 42.9576 9.41255 42.8875 8.55057 42.7646C7.84956 42.6281 7.16951 42.4 6.52787 42.0863C5.16891 41.395 4.06459 40.29 3.37418 38.9306C3.05877 38.2846 2.82998 37.5998 2.69372 36.8939C2.57318 36.0383 2.5044 35.1762 2.48776 34.3123L2.48757 34.3028L2.48721 34.2934C2.47292 33.9197 2.46668 33.4289 2.46667 33.2046C2.46667 33.2045 2.46667 33.2045 2.46667 33.2044L2.47093 12.2601V12.2599C2.47093 12.0393 2.47917 11.5464 2.49166 11.1655L2.49174 11.1655L2.49199 11.1531C2.50971 10.2822 2.58053 9.41327 2.70402 8.55105C2.84052 7.84989 3.06859 7.1697 3.38239 6.52795C4.07361 5.16888 5.1786 4.06448 6.538 3.37405C7.18395 3.05862 7.86867 2.82984 8.57443 2.69361C9.42998 2.57306 10.292 2.50428 11.1559 2.48763L11.1654 2.48745L11.1749 2.48709C11.5484 2.4728 12.0391 2.46656 12.2635 2.46655C12.2635 2.46655 12.2636 2.46655 12.2637 2.46655C12.2637 2.46655 12.2637 2.46655 12.2638 2.46655L33.2069 2.47293H33.2072C33.4314 2.47293 33.9224 2.47917 34.2961 2.49347L34.3055 2.49383L34.3149 2.49401C35.1855 2.51096 36.0542 2.58108 36.9162 2.70398C37.6172 2.8404 38.2972 3.06845 38.9388 3.38228C40.2978 4.07339 41.4022 5.17845 42.0925 6.53799C42.4079 7.18398 42.6367 7.86875 42.773 8.57456C42.8934 9.43025 42.9622 10.2924 42.9789 11.1564Z" stroke="#FFE8D9" stroke-width="2"/>
<path d="M23.2148 10.269C20.9022 10.2684 18.6316 10.8873 16.6391 12.0614C14.6467 13.2355 13.0052 14.922 11.8854 16.9454C10.7656 18.9689 10.2082 21.2553 10.2714 23.5671C10.3346 25.8789 11.016 28.1316 12.2447 30.0908L12.5526 30.58L11.2444 35.3542L16.1431 34.07L16.6148 34.3495C18.609 35.5306 20.8841 36.1536 23.2017 36.1535H23.2083C26.641 36.1541 29.9335 34.791 32.3612 32.364C34.789 29.9371 36.1532 26.6451 36.1538 23.2124C36.1544 19.7796 34.7912 16.4872 32.3643 14.0594C29.9374 11.6316 26.6454 10.2674 23.2126 10.2668L23.2148 10.269ZM30.8238 28.7673C30.5375 29.2401 30.1565 29.6485 29.7047 29.9668C29.2529 30.2852 28.7402 30.5066 28.1986 30.6171C27.3811 30.7574 26.542 30.705 25.7482 30.4642C24.9954 30.2297 24.2555 29.9556 23.5315 29.6431C20.8446 28.2947 18.5544 26.2709 16.8856 23.7704C15.9753 22.6128 15.4227 21.2146 15.2957 19.7475C15.2852 19.1419 15.401 18.5408 15.6356 17.9824C15.8703 17.424 16.2186 16.9206 16.6585 16.5043C16.7885 16.356 16.9478 16.2362 17.1263 16.1523C17.3048 16.0685 17.4988 16.0225 17.6959 16.0173C17.9536 16.0173 18.2135 16.0173 18.4406 16.0304C18.6809 16.0413 18.9997 15.9386 19.3142 16.6987C19.6418 17.4761 20.4193 19.3915 20.5154 19.5859C20.5771 19.6878 20.6124 19.8034 20.6181 19.9224C20.6238 20.0414 20.5998 20.1599 20.5482 20.2673C20.4502 20.5009 20.3193 20.7193 20.1594 20.9159C19.9629 21.143 19.751 21.4226 19.5763 21.5973C19.3798 21.7917 19.1788 22.0013 19.4038 22.3901C19.988 23.3905 20.7174 24.2987 21.5681 25.0851C22.4911 25.9057 23.5502 26.5591 24.6977 27.0158C25.0865 27.2123 25.3136 27.1774 25.5407 26.9175C25.7679 26.6576 26.5126 25.7818 26.7725 25.3931C27.0324 25.0043 27.2901 25.0698 27.6461 25.1987C28.0021 25.3275 29.9174 26.2688 30.3062 26.4654C30.6949 26.662 30.9548 26.7559 31.0509 26.9175C31.1574 27.543 31.0785 28.1861 30.8238 28.7673Z" fill="#FFE8D9"/>
</g>
<defs>
<clipPath id="clip0_10_13">
<rect width="44" height="44" fill="white"/>
</clipPath>
</defs>
</svg>
